<svg width="32" height="32" viewBox="0 0 32 32" fill="none" xmlns="http://www.w3.org/2000/svg">
<circle cx="16" cy="16" r="16" fill="white"/>
<path d="M10.9671 17.2721L15.6022 21.6263C15.654 21.675 15.68 21.6993 15.7046 21.7174C15.8805 21.8462 16.1195 21.8462 16.2954 21.7174C16.32 21.6993 16.346 21.675 16.3978 21.6263L21.0329 17.2721C22.337 16.0471 22.4954 14.0311 21.3985 12.6174L21.1923 12.3516C19.8802 10.6604 17.2464 10.944 16.3244 12.8758C16.1942 13.1486 15.8058 13.1486 15.6756 12.8758C14.7536 10.944 12.1198 10.6604 10.8077 12.3516L10.6015 12.6174C9.50463 14.0311 9.663 16.0471 10.9671 17.2721Z" stroke="#5F5F5F" stroke-width="2"/>
</svg>
